# xmcd
#
# Track frame offsets:
#	150
#	13497
#	28909
#	46551
#	65183
#	78700
#	91172
#	110279
#	121751
#	139098
#	157600
#	173932
#	196834
#	208956
#	218798
#	233155
#
# Disc length: 3189 seconds
#
# Revision: 0
# Processed by: cddbd v1.5.2PL0 Copyright (c) Steve Scherf et al.
# Submitted via: EZCDAudioConverter 2.1.5.1
#
DISCID=da0c7310
DTITLE=Various Artist - Waltzing Matilda
DYEAR=2002
DGENRE=
TTITLE0=Waltzing Matilda
TTITLE1=I Still Call Australia Home
TTITLE2=True Blue
TTITLE3=Botany Bay
TTITLE4=Down Under
TTITLE5=Home Among The Gum Trees
TTITLE6=Raining On The Rock
TTITLE7=South Australia
TTITLE8=Tenterfield Saddler
TTITLE9=Duncan
TTITLE10=A Pub With No Beer
TTITLE11=The Wild Colonial Boy
TTITLE12=Old Man Emu
TTITLE13=I've Been Everywhere
TTITLE14=G'day G'day
TTITLE15=Advance Australia Fair
EXTD=
EXTT0=
EXTT1=
EXTT2=
EXTT3=
EXTT4=
EXTT5=
EXTT6=
EXTT7=
EXTT8=
EXTT9=
EXTT10=
EXTT11=
EXTT12=
EXTT13=
EXTT14=
EXTT15=
PLAYORDER=
